Coordinates
version=1
nRows=29
nColumns=24
inDegrees=yes

Units are S.I. units (second, meters, Newtons, ...)
Angles are in degrees.

endheader
time	pelvis_tilt	pelvis_list	pelvis_rotation	pelvis_tx	pelvis_ty	pelvis_tz	hip_flexion_r	hip_adduction_r	hip_rotation_r	knee_angle_r	ankle_angle_r	subtalar_angle_r	mtp_angle_r	hip_flexion_l	hip_adduction_l	hip_rotation_l	knee_angle_l	ankle_angle_l	subtalar_angle_l	mtp_angle_l	lumbar_extension	lumbar_bending	lumbar_rotation
      4.74000000	    -12.32295090	      8.61803808	      4.83697972	     -1.75634979	     -0.03196330	      2.00939944	     16.03507341	    -15.51253122	    -14.78442533	    -58.11814268	    -22.15423431	    -12.99618693	     21.00672151	     28.85086902	     13.65350946	     -1.80564196	    -19.68639518	      7.97904351	     -1.80654568	    -52.71855030	      8.68217964	    -11.26631599	     -2.51399817
      4.75000000	    -12.17982012	      8.66417708	      4.64482523	     -1.74441937	     -0.02970128	      2.00879868	     17.71501306	    -15.27264626	    -13.57299619	    -59.56431557	    -20.97203488	    -13.96731906	     20.82451793	     27.51103151	     13.59092826	     -2.08635097	    -19.07086012	      8.70316872	     -1.25927544	    -52.61626142	      8.49609378	    -11.24503485	     -2.55666991
      4.76000000	    -12.03576672	      8.67398780	      4.48317018	     -1.73254767	     -0.02748233	      2.00819206	     19.38801428	    -14.96483816	    -12.42553961	    -60.75671887	    -19.79073192	    -14.28185263	     20.74886571	     26.11756974	     13.52495185	     -2.25507896	    -18.35039526	      9.34097119	     -0.79958191	    -52.54553734	      8.30215220	    -11.18926345	     -2.67830123
      4.77000000	    -11.91310846	      8.63693661	      4.33397037	     -1.72074222	     -0.02543806	      2.00754960	     21.06202334	    -14.59961935	    -11.39509239	    -61.68360198	    -18.58647365	    -14.18292611	     20.88096311	     24.71186529	     13.45399456	     -2.26476554	    -17.55322317	      9.92707882	     -0.54520273	    -52.49699847	      8.13458851	    -11.07668349	     -2.73535900
      4.78000000	    -11.79063363	      8.62421974	      4.18244676	     -1.70909439	     -0.02356389	      2.00700429	     22.71300650	    -14.22883100	    -10.40557349	    -62.36262638	    -17.25226752	    -13.71559935	     21.46061113	     23.29319485	     13.41668868	     -2.23582749	    -16.69425902	     10.37844415	     -0.39319034	    -52.46311519	      7.93973150	    -11.00063252	     -2.79740248
      4.79000000	    -11.64573685	      8.50735326	      4.07793210	     -1.69743674	     -0.02174935	      2.00623670	     24.19826162	    -13.78306600	     -9.59891576	    -62.60532622	    -16.23676387	    -13.15821806	     25.11073909	     21.83188158	     13.33288450	     -1.98965876	    -15.80006299	     10.75918330	     -0.44114918	    -52.33239250	      7.72867843	    -10.80100289	     -2.89568270
      4.80000000	    -11.47061539	      8.28603667	      4.04488788	     -1.68590078	     -0.01999297	      2.00543076	     25.53452782	    -13.23244011	     -8.98071542	    -62.55137980	    -14.91354525	    -12.39895719	     27.63731251	     20.37050484	     13.16969634	     -1.60654008	    -14.94910427	     11.05476661	     -0.55251460	    -51.96278948	      7.46056600	    -10.50473304	     -3.07222736
      4.81000000	    -11.39008688	      7.97330623	      4.05252664	     -1.67450557	     -0.01848578	      2.00465864	     26.90233625	    -12.59222368	     -8.51060710	    -62.27457583	    -13.33552471	    -11.54682375	     28.23626815	     19.08667441	     12.90730782	     -1.23249561	    -14.21129132	     11.44137669	     -0.58237569	    -51.83962271	      7.27860403	    -10.13767954	     -3.26400388
      4.82000000	    -11.19114701	      7.56605027	      4.15518445	     -1.66323590	     -0.01689451	      2.00368134	     27.97638594	    -11.93544916	     -8.30510643	    -61.58108765	    -12.15778605	    -10.96683973	     30.47617488	     17.69404087	     12.59218146	     -0.61043396	    -13.48751608	     11.61781632	     -0.83024699	    -51.23374645	      6.93586962	     -9.66583581	     -3.58695746
      4.83000000	    -11.15375662	      7.15878490	      4.30124315	     -1.65210599	     -0.01573790	      2.00274490	     29.19287390	    -11.31872706	     -8.19270542	    -60.75434570	    -10.82383847	    -10.32735813	     30.65136823	     16.55126341	     12.26786131	     -0.05527151	    -12.87248663	     11.91816965	     -0.99906351	    -51.11601277	      6.74959950	     -9.22004381	     -3.87072448
      4.84000000	    -10.97027403	      6.69015691	      4.56321121	     -1.64093774	     -0.01453361	      2.00155752	     30.09211217	    -10.75968919	     -8.38878383	    -59.60753735	     -9.75737926	     -9.92512172	     30.44592639	     15.22949364	     11.91975567	      0.72736059	    -12.21829998	     12.10124473	     -1.40454413	    -50.83355504	      6.40041904	     -8.69702899	     -4.32475232
      4.85000000	    -10.80841922	      6.22243731	      4.87798207	     -1.62981757	     -0.01357176	      2.00036281	     30.92937499	    -10.25808841	     -8.70399838	    -58.24935566	     -8.77964866	     -9.62681103	     29.67486117	     13.97549329	     11.55503054	      1.46451762	    -11.63294755	     12.29402818	     -1.71638074	    -50.36994190	      6.06538049	     -8.18482253	     -4.78033516
      4.86000000	    -10.79326565	      5.75172377	      5.30705256	     -1.61874586	     -0.01301754	      1.99904363	     31.82850177	     -9.87321734	     -9.18888573	    -56.68632895	     -7.89474516	     -9.37779524	     29.18227797	     12.96448052	     11.18775028	      2.07885239	    -11.20161822	     12.66246403	     -1.76565784	    -50.09571992	      5.87903142	     -7.69116572	     -5.33284663
      4.87000000	    -10.52966625	      5.32479486	      5.57193973	     -1.60761280	     -0.01232631	      1.99797959	     32.38798886	     -9.41520931	     -9.53254118	    -54.90644099	     -6.96225346	     -9.10392214	     27.26095196	     11.63915397	     10.80207666	      2.71967095	    -10.64508097	     12.82421342	     -2.11174228	    -49.49021459	      5.44828592	     -7.19402091	     -5.70059731
      4.88000000	    -10.50766054	      4.85739885	      5.97104840	     -1.59656711	     -0.01209950	      1.99682030	     33.10714472	     -9.03527987	    -10.03450873	    -52.92650193	     -6.11045837	     -8.84959723	     25.58691192	     10.67766386	     10.39182563	      3.30255777	    -10.26875564	     13.14734669	     -2.22444094	    -48.93469066	      5.26837069	     -6.69526285	     -6.16427437
      4.89000000	    -10.51384780	      4.43796472	      6.30996471	     -1.58552957	     -0.01208923	      1.99578719	     33.78710647	     -8.69579115	    -10.48925126	    -50.74859841	     -5.35247233	     -8.52870193	     24.30259116	      9.76225693	     10.00333263	      3.79201704	     -9.90175460	     13.50522971	     -2.30343205	    -48.51359239	      5.12636754	     -6.23925635	     -6.49933032
      4.90000000	    -10.54986773	      4.05397208	      6.60287742	     -1.57446275	     -0.01228670	      1.99485400	     34.42331270	     -8.38852462	    -10.91534368	    -48.38193149	     -4.69637761	     -8.10970807	     23.41548036	      8.88056695	      9.63318122	      4.23132501	     -9.52792467	     13.88411720	     -2.40211763	    -48.20386193	      5.02659116	     -5.81423790	     -6.83791808
      4.91000000	    -10.72764119	      3.71679336	      6.87607947	     -1.56340709	     -0.01283756	      1.99400667	     35.15738279	     -8.16110197	    -11.35995564	    -45.86950775	     -4.18712385	     -7.58876193	     23.21058704	      8.18997429	      9.30495529	      4.53685558	     -9.22458457	     14.35384104	     -2.36113823	    -48.03300731	      5.07787293	     -5.45175014	     -7.14092660
      4.92000000	    -10.78855249	      3.42513026	      7.06351241	     -1.55224312	     -0.01339006	      1.99329992	     35.68610820	     -7.94177058	    -11.79373826	    -43.20670221	     -3.71574930	     -6.80244219	     23.09413464	      7.33780284	      8.98081494	      4.76319192	     -8.86047095	     14.79570625	     -2.31496000	    -47.85562767	      5.01694461	     -5.10796647	     -7.37959815
      4.93000000	    -10.90165968	      3.16907525	      7.17218241	     -1.54101263	     -0.01418359	      1.99280504	     36.21541288	     -7.71831245	    -12.20758831	    -40.43713806	     -3.26013308	     -5.81202690	     23.24156100	      6.56039688	      8.66927826	      4.83888974	     -8.53714461	     15.30175933	     -2.17973429	    -47.68749102	      5.02057489	     -4.80677017	     -7.48088498
      4.94000000	    -10.91922015	      2.88191296	      7.22739561	     -1.52979458	     -0.01491317	      1.99245708	     36.54684982	     -7.41560891	    -12.63318473	    -37.50544107	     -2.91523988	     -4.57011453	     23.80938547	      5.70785213	      8.28819505	      4.72812731	     -8.24434628	     15.83279973	     -1.90918102	    -47.51091215	      4.91286942	     -4.45052493	     -7.65101418
      4.95000000	    -10.81200135	      2.50063455	      7.13889932	     -1.51844078	     -0.01553138	      1.99245966	     36.62240378	     -6.87283429	    -13.01514273	    -34.32931062	     -2.85938806	     -3.43921290	     25.74049398	      4.71641052	      7.74968715	      4.46912234	     -7.92683935	     16.43217399	     -1.57511111	    -47.38613273	      4.70337064	     -3.97757599	     -7.58833817
      4.96000000	    -11.05474721	      2.24671202	      7.07087531	     -1.50729121	     -0.01671804	      1.99249850	     37.08077683	     -6.50968248	    -13.28693251	    -31.30541765	     -2.39430051	     -1.66329522	     26.39830386	      4.17900788	      7.40691635	      4.08419449	     -7.75252720	     16.99727712	     -1.21001698	    -47.27465459	      4.81957328	     -3.68287583	     -7.57906898
      4.97000000	    -10.95485218	      1.84256715	      6.79540813	     -1.49604719	     -0.01739921	      1.99291237	     36.99851075	     -5.76973175	    -13.42915683	    -27.96296074	     -2.37255083	     -0.26176593	     28.76840187	      3.25808855	      6.82044355	      3.50360323	     -7.52486029	     17.66703607	     -0.77620414	    -47.65780558	      4.58698796	     -3.16452901	     -7.33689855
      4.98000000	    -11.15265999	      1.50034972	      6.62514205	     -1.48488243	     -0.01855193	      1.99332208	     37.19096200	     -5.16829565	    -13.51534126	    -24.78124462	     -1.93096044	      1.38010333	     28.67242851	      2.76830581	      6.34578036	      2.80989560	     -7.52838903	     18.33571529	     -0.12434543	    -47.52271053	      4.64581112	     -2.76526461	     -7.23166283
      4.99000000	    -11.08961078	      1.19898408	      6.33418687	     -1.47341276	     -0.01950431	      1.99404473	     36.94654292	     -4.45481412	    -13.40307630	    -21.48579873	     -1.52546056	      2.76844214	     27.97895925	      1.95670779	      5.85238884	      1.86560936	     -7.51080876	     19.00971136	      0.70432818	    -47.47497064	      4.44810137	     -2.37769140	     -6.97873875
      5.00000000	    -10.83585698	      0.95579417	      6.08778065	     -1.46151174	     -0.02041033	      1.99487450	     36.33994638	     -3.75068959	    -13.04505927	    -18.24611235	     -0.73365073	      3.98622504	     22.96853875	      0.88650382	      5.39949668	      1.11213852	     -7.46973543	     19.73860641	      1.36884304	    -48.54666669	      4.09132692	     -2.04717299	     -6.73287509
      5.01000000	    -10.77496271	      0.78265685	      6.02425464	     -1.44931038	     -0.02170636	      1.99567163	     35.76937190	     -3.25413130	    -12.92459388	    -14.84927574	     -0.83274774	      4.61580945	     22.22967236	      0.13143746	      5.02154554	      0.23527421	     -7.70426990	     20.39242440	      2.46846966	    -48.29889146	      3.96941351	     -1.85171375	     -6.70174059
      5.02000000	    -10.42026819	      0.58843711	      5.92933765	     -1.43669691	     -0.02273629	      1.99655504	     34.83643857	     -2.70656306	    -12.77500321	    -11.77899243	     -0.45587873	      5.26911718	     17.92761278	     -0.99246812	      4.58447686	     -0.41625233	     -7.88233437	     20.90731472	      3.26996783	    -48.39631638	      3.58600478	     -1.60101223	     -6.61714231
